<svg width="98" height="97" viewBox="0 0 98 97" fill="none" xmlns="http://www.w3.org/2000/svg">
<path d="M23.4336 44.9336L2.03553 23.5355C0.0829124 21.5829 0.0829155 18.4171 2.03554 16.4645L16.9645 1.53553C18.9171 -0.417087 22.0829 -0.417085 24.0355 1.53554L45.4645 22.9645C47.4171 24.9171 50.5829 24.9171 52.5355 22.9645L73.9645 1.53553C75.9171 -0.417088 79.0829 -0.417084 81.0355 1.53554L95.9019 16.4019C97.8788 18.3788 97.8506 21.5925 95.8393 23.5344L74.1607 44.4656C72.1494 46.4075 72.1212 49.6212 74.0981 51.5981L95.9645 73.4645C97.9171 75.4171 97.9171 78.5829 95.9645 80.5355L81.0355 95.4645C79.0829 97.4171 75.9171 97.4171 73.9645 95.4645L52.0981 73.5981C50.1212 71.6212 46.9075 71.6494 44.9656 73.6607L23.9949 95.3802C22.0683 97.3757 18.8856 97.4215 16.9024 95.4823L1.64701 80.566C-0.355314 78.6081 -0.359401 75.3877 1.63794 73.4248L23.4027 52.0353C25.3844 50.0878 25.3982 46.8982 23.4336 44.9336Z" fill="#31C4BE"/>
</svg>
